<?xml version="1.0" encoding="utf-8"?>
<!-- Generator: Adobe Illustrator 25.0.0, SVG Export Plug-In . SVG Version: 6.00 Build 0)  -->
<svg version="1.1" id="Layer_1" xmlns="http://www.w3.org/2000/svg" xmlns:xlink="http://www.w3.org/1999/xlink" x="0px" y="0px"
	 viewBox="0 0 1920 1080" style="enable-background:new 0 0 1920 1080;" xml:space="preserve">
<style type="text/css">
	.st0{fill:#FFFFFF;}
</style>
<g>
	<g>
		<path class="st0" d="M1215.24,795.24c-170.06,0-340.13,0-510.24,0c0-170.04,0-340.1,0-510.24c170.05,0,340.14,0,510.24,0
			C1215.24,455.04,1215.24,625.13,1215.24,795.24z M1150.45,433.74c0-9.44,0.02-18.88-0.01-28.32c-0.01-3.14-0.32-6.25-1.92-9.05
			c-0.87-1.52-1.84-2.99-2.71-4.51c-0.76-1.32-1.75-2.29-3.33-2.46c-1.61-0.18-2.83-1-3.89-2.16c-1.14-1.25-2.57-1.72-4.25-1.91
			c-1.47-0.17-3.09-0.46-4.28-1.25c-2.41-1.59-4.98-2.11-7.74-2.05c-3.58,0.07-6.97-0.71-10.27-2.06c-1.46-0.6-3.04-1.28-4.57-1.29
			c-7.57-0.08-14.92-1.73-22.36-2.74c-3.17-0.43-6.31-1.08-9.49-1.39c-2.45-0.25-4.95-0.01-7.42-0.2
			c-6.14-0.47-12.28-0.99-18.4-1.64c-4.13-0.43-8.22-1.12-12.34-1.66c-1.9-0.25-3.81-0.54-5.72-0.6c-3.59-0.1-7.18,0-10.77-0.05
			c-5.84-0.08-11.68-0.29-17.51-0.31c-20.4-0.07-40.79-0.37-61.18,0.65c-0.88,0.04-1.78,0.08-2.63-0.07
			c-2.99-0.52-5.88,0.02-8.79,0.63c-2.03,0.43-4.09,0.74-6.15,0.99c-2.77,0.34-5.56,0.59-8.34,0.87c-3.34,0.34-6.67,0.92-10.02,0.97
			c-3.46,0.06-6.85,0.25-10.23,1.01c-3.27,0.73-6.58,1.3-9.88,1.91c-2.43,0.45-4.86,1.12-7.31,1.21c-2.75,0.1-5.13,0.95-7.48,2.23
			c-1.04,0.57-2.25,1.34-3.31,1.23c-3.9-0.38-6.65,1.7-9.44,3.84c-0.63,0.49-1.28,0.96-1.83,1.54c-0.43,0.45-0.84,1.01-1.03,1.59
			c-1.21,3.73-2.5,7.43-1.76,11.49c0.27,1.48,0.13,3.03,0.11,4.55c-0.01,0.63-0.08,1.3-0.31,1.87c-0.37,0.93-1.01,1.69-2.15,1.59
			c-1.13-0.1-1.65-0.9-1.83-1.92c-0.11-0.63-0.12-1.27-0.11-1.91c0.03-2.48,0.22-4.97,0.09-7.44c-0.09-1.73-0.47-3.48-0.98-5.14
			c-0.26-0.84-0.94-1.8-1.7-2.19c-1.84-0.95-3.82-1.67-5.99-0.93c-0.68,0.23-1.4,0.37-2.11,0.45c-10.84,1.15-21.73,0.79-32.6,1.04
			c-2.79,0.06-5.58,0.21-8.37,0.36c-0.46,0.02-1.05,0.13-1.34,0.42c-1.98,1.99-4.93,2.67-6.65,5.01c-0.69,0.94-1.69,1.46-2.9,1.47
			c-1.39,0.01-2.37,0.72-3.3,1.7c-0.76,0.8-1.72,1.4-2.55,2.15c-0.93,0.85-1.81,1.76-2.72,2.63c-0.91,0.87-1.77,1.79-2.75,2.58
			c-1.37,1.09-2.83,2.06-4.23,3.11c-1.5,1.12-2.11,2.54-1.5,4.41c0.17,0.52,0.16,1.11,0.16,1.67c-0.04,6.63-0.1,13.27-0.12,19.9
			c0,0.94-0.12,2.11,0.37,2.76c1.45,1.96,2.83,4.11,5.56,4.62c1.5,0.28,2.45,1.28,3.26,2.59c0.69,1.12,1.73,2.03,2.66,2.99
			c0.55,0.57,1.26,1,1.78,1.6c0.9,1.03,1.95,1.6,3.34,1.59c1.58-0.01,2.68,0.83,3.61,2.04c0.58,0.75,1.24,1.49,2.01,2.03
			c2.78,1.92,5.63,3.41,9.28,2.94c2.1-0.28,4.3,0.22,6.45,0.35c1.36,0.08,2.71,0.14,4.07,0.18c6.23,0.18,12.47,0.21,18.69,0.57
			c3.57,0.2,7.21,0.18,10.64,1.56c0.6,0.24,1.46,0.15,2.1-0.07c2.88-0.97,5.18-2.54,5.51-5.92c0.11-1.19,0.33-2.38,0.32-3.57
			c0-4-0.11-8-0.11-12c0-1.94,0.78-3.02,2-3.07c1.26-0.05,2.29,1.22,2.43,3.05c0.03,0.4,0.02,0.8,0,1.2
			c-0.06,1.28-0.15,2.55-0.21,3.83c-0.19,3.92-0.41,7.82,0.76,11.67c0.27,0.87,0.28,1.92,0.09,2.82c-0.37,1.74,0.12,2.91,1.62,3.85
			c0.86,0.54,1.66,1.27,2.27,2.07c0.84,1.11,1.84,1.67,3.2,1.86c1.67,0.23,3.38,0.55,4.58,1.87c1.86,2.03,4.14,2.47,6.76,2.27
			c1.32-0.1,2.74,0.04,4.01,0.41c1.91,0.55,3.77,1.33,5.59,2.13c1.94,0.85,3.93,1.18,6.03,1.38c3.81,0.36,7.68,0.66,11.38,1.57
			c4.3,1.07,8.56,1.87,13.01,1.8c1.57-0.03,3.19,0.28,4.71,0.71c2.31,0.66,2.94,1.74,2.74,4.09c-0.09,1.04-0.15,2.09-0.41,3.09
			c-0.5,1.87-0.16,3.45,1.17,4.87c1.25,1.34,1.82,2.99,1.82,4.83c0.01,4.4,0.11,8.8-0.02,13.19c-0.04,1.38-0.61,2.78-1.12,4.1
			c-1,2.61-2.22,5.14-3.18,7.76c-1,2.73-0.02,4.27,2.88,4.8c1.96,0.36,3.95,0.61,5.92,0.91c2.19,0.33,3.93,1.17,4.61,3.56
			c0.25,0.87,0.94,1.63,1.53,2.37c0.84,1.06,1.82,2.02,2.65,3.08c0.79,1.02,1.73,1.62,3.05,1.57c1.64-0.05,2.91,0.66,3.99,1.86
			c0.59,0.65,1.23,1.27,1.92,1.8c1.58,1.22,2.29,2.82,2.31,4.78c0.01,1.68-0.08,3.37,0.07,5.04c0.25,2.62,0.21,5.39,1.11,7.79
			c1.38,3.67,1.88,7.39,2.23,11.23c0.26,2.77,0.5,5.67,1.49,8.22c1.36,3.5,2.01,7.04,2.36,10.71c0.38,3.98,0.76,7.96,2.49,11.67
			c1.21,2.58,1.51,5.35,1.83,8.15c0.23,2.04,0.91,4.03,1.38,6.04c0.62,2.72,1.56,5.42,1.77,8.17c0.57,7.5,1.24,14.97,2.27,22.42
			c0.65,4.66,0.66,9.41-0.21,14.1c-0.38,2.04-0.75,4.09-0.99,6.15c-0.38,3.26-0.6,6.53-1,9.79c-0.23,1.9-0.43,3.84-1.63,5.46
			c-1.18,1.58-1.74,3.39-2.14,5.29c-0.19,0.92-0.43,1.95-0.99,2.65c-2.51,3.17-3.98,7.09-7.1,9.83c-1.19,1.05-2.21,2.29-3.35,3.4
			c-1.19,1.17-2.44,2.29-3.64,3.46c-3.02,2.98-4.63,6.87-6.67,10.47c-0.84,1.47-0.57,2.87,0.63,4.17c0.91,0.98,1.7,2.11,2.36,3.28
			c0.77,1.38,1.8,2.07,3.38,2.33c1.12,0.19,2.36,0.7,3.16,1.46c1.52,1.44,3.16,2.04,5.21,1.89c1.47-0.1,2.95,0.23,3.94,1.41
			c1.78,2.11,4.17,2.61,6.68,2.68c8.31,0.24,16.63,0.42,24.94,0.56c4.24,0.07,8.48-0.03,12.72,0.02c4.88,0.06,9.76,0.15,14.55-1.07
			c0.84-0.21,1.77-0.08,2.62-0.28c0.9-0.22,1.9-0.46,2.6-1.01c1.51-1.2,3.14-1.91,5.05-1.89c1.51,0.01,2.53-0.66,3.4-1.87
			c0.64-0.89,1.62-1.53,2.3-2.4c1.7-2.19,3.33-4.43,4.96-6.67c0.17-0.24,0.2-0.61,0.24-0.92c0.37-2.73,0.42-5.48-0.65-8.05
			c-1.62-3.89-1.6-7.85-0.55-11.76c1.52-5.62,2.21-11.29,2.02-17.09c-0.12-3.66,0.43-7.15,2.25-10.42c0.56-1,0.8-2.26,0.87-3.42
			c0.36-6.55,0.61-13.1,0.94-19.65c0.1-2.08,0.18-4.17,0.5-6.21c1.28-8.23,2.12-16.52,2.32-24.83c0.23-9.82,0.53-19.66-0.91-29.46
			c-0.47-3.24-0.69-6.49-1.56-9.68c-0.46-1.68-0.56-3.47-0.68-5.22c-0.23-3.43-0.3-6.87-0.54-10.3c-0.17-2.39-0.59-4.72-1.73-6.92
			c-0.68-1.31-0.92-2.89-1.14-4.38c-0.26-1.74-0.25-3.51-0.41-5.26c-0.25-2.72-0.47-5.53-2.18-7.75c-1.33-1.73-1.91-3.65-2.42-5.67
			c-0.29-1.16-0.53-2.36-1-3.45c-2.51-5.83-2.71-11.96-2.49-18.15c0.05-1.42,0.32-2.91,0.87-4.2c1.05-2.5,2.33-4.91,3.61-7.3
			c0.81-1.53,2.05-2.64,3.78-3.12c1.35-0.38,2.46-1.12,3.29-2.27c1.33-1.85,3.19-2.58,5.4-2.58c0.88,0,1.76-0.05,2.64-0.02
			c2.21,0.09,4.24-0.53,6.27-1.34c1.76-0.7,3.63-1.3,5.5-1.56c2.53-0.35,5.1-0.42,7.66-0.43c7.84-0.04,15.68,0,23.52,0
			c7.84,0,15.68,0.11,23.52-0.07c4.05-0.1,8.19-0.07,12.01-1.8c2.55-1.15,5.07-2.33,7.92-2.62c0.64-0.07,1.38-0.54,1.8-1.06
			c1.14-1.42,2.47-2.46,4.24-2.98c0.51-0.15,0.98-0.53,1.41-0.89c2.78-2.34,4.76-5.37,6.97-8.2c0.42-0.53,0.63-1.31,0.72-2
			c0.3-2.46,0.67-4.92,0.7-7.39C1150.5,451.34,1150.45,442.54,1150.45,433.74z"/>
		<path d="M1150.45,433.74c0,8.8,0.05,17.6-0.03,26.4c-0.02,2.47-0.4,4.93-0.7,7.39c-0.08,0.69-0.3,1.47-0.72,2
			c-2.21,2.83-4.19,5.86-6.97,8.2c-0.42,0.36-0.89,0.74-1.41,0.89c-1.77,0.52-3.09,1.57-4.24,2.98c-0.42,0.52-1.16,0.99-1.8,1.06
			c-2.85,0.3-5.37,1.47-7.92,2.62c-3.82,1.73-7.96,1.71-12.01,1.8c-7.84,0.19-15.68,0.07-23.52,0.07c-7.84,0-15.68-0.05-23.52,0
			c-2.56,0.01-5.13,0.09-7.66,0.43c-1.87,0.26-3.73,0.86-5.5,1.56c-2.04,0.81-4.06,1.43-6.27,1.34c-0.88-0.04-1.76,0.02-2.64,0.02
			c-2.21,0-4.08,0.73-5.4,2.58c-0.83,1.15-1.94,1.9-3.29,2.27c-1.73,0.48-2.97,1.6-3.78,3.12c-1.27,2.4-2.55,4.81-3.61,7.3
			c-0.55,1.3-0.82,2.79-0.87,4.2c-0.22,6.18-0.02,12.32,2.49,18.15c0.47,1.09,0.71,2.29,1,3.45c0.5,2.02,1.08,3.93,2.42,5.67
			c1.71,2.22,1.93,5.03,2.18,7.75c0.16,1.75,0.15,3.52,0.41,5.26c0.22,1.49,0.46,3.07,1.14,4.38c1.14,2.21,1.57,4.53,1.73,6.92
			c0.24,3.43,0.31,6.87,0.54,10.3c0.12,1.75,0.22,3.54,0.68,5.22c0.87,3.19,1.09,6.44,1.56,9.68c1.43,9.8,1.14,19.64,0.91,29.46
			c-0.2,8.3-1.04,16.6-2.32,24.83c-0.32,2.05-0.4,4.14-0.5,6.21c-0.32,6.55-0.57,13.1-0.94,19.65c-0.06,1.16-0.31,2.43-0.87,3.42
			c-1.83,3.27-2.37,6.76-2.25,10.42c0.19,5.8-0.5,11.47-2.02,17.09c-1.06,3.9-1.07,7.87,0.55,11.76c1.07,2.56,1.02,5.32,0.65,8.05
			c-0.04,0.31-0.07,0.68-0.24,0.92c-1.63,2.24-3.26,4.49-4.96,6.67c-0.68,0.87-1.66,1.51-2.3,2.4c-0.87,1.21-1.89,1.88-3.4,1.87
			c-1.92-0.02-3.54,0.7-5.05,1.89c-0.7,0.56-1.7,0.8-2.6,1.01c-0.85,0.2-1.77,0.07-2.62,0.28c-4.79,1.22-9.67,1.13-14.55,1.07
			c-4.24-0.05-8.48,0.05-12.72-0.02c-8.32-0.14-16.63-0.33-24.94-0.56c-2.51-0.07-4.91-0.56-6.68-2.68
			c-0.99-1.17-2.47-1.51-3.94-1.41c-2.05,0.14-3.69-0.45-5.21-1.89c-0.81-0.76-2.05-1.27-3.16-1.46c-1.58-0.26-2.61-0.95-3.38-2.33
			c-0.65-1.17-1.45-2.3-2.36-3.28c-1.2-1.3-1.47-2.69-0.63-4.17c2.05-3.6,3.65-7.5,6.67-10.47c1.19-1.17,2.45-2.29,3.64-3.46
			c1.13-1.12,2.15-2.35,3.35-3.4c3.12-2.74,4.58-6.66,7.1-9.83c0.56-0.71,0.8-1.73,0.99-2.65c0.39-1.9,0.96-3.71,2.14-5.29
			c1.2-1.61,1.4-3.56,1.63-5.46c0.39-3.25,0.61-6.53,1-9.79c0.24-2.06,0.61-4.11,0.99-6.15c0.87-4.69,0.85-9.44,0.21-14.1
			c-1.03-7.45-1.71-14.92-2.27-22.42c-0.21-2.75-1.15-5.45-1.77-8.17c-0.46-2.02-1.14-4-1.38-6.04c-0.32-2.8-0.62-5.57-1.83-8.15
			c-1.74-3.7-2.11-7.69-2.49-11.67c-0.35-3.68-1.01-7.21-2.36-10.71c-0.99-2.55-1.24-5.45-1.49-8.22
			c-0.36-3.83-0.85-7.55-2.23-11.23c-0.9-2.4-0.87-5.17-1.11-7.79c-0.16-1.67-0.06-3.36-0.07-5.04c-0.01-1.96-0.73-3.56-2.31-4.78
			c-0.69-0.54-1.34-1.15-1.92-1.8c-1.08-1.2-2.35-1.91-3.99-1.86c-1.32,0.04-2.26-0.55-3.05-1.57c-0.83-1.07-1.81-2.02-2.65-3.08
			c-0.59-0.74-1.28-1.5-1.53-2.37c-0.68-2.39-2.42-3.22-4.61-3.56c-1.98-0.3-3.96-0.55-5.92-0.91c-2.9-0.53-3.88-2.07-2.88-4.8
			c0.96-2.63,2.18-5.15,3.18-7.76c0.51-1.32,1.08-2.72,1.12-4.1c0.13-4.39,0.03-8.79,0.02-13.19c-0.01-1.83-0.57-3.48-1.82-4.83
			c-1.33-1.43-1.66-3-1.17-4.87c0.27-1,0.33-2.05,0.41-3.09c0.2-2.36-0.44-3.44-2.74-4.09c-1.52-0.43-3.14-0.74-4.71-0.71
			c-4.45,0.07-8.71-0.73-13.01-1.8c-3.7-0.92-7.56-1.21-11.38-1.57c-2.1-0.2-4.1-0.52-6.03-1.38c-1.82-0.8-3.68-1.58-5.59-2.13
			c-1.28-0.37-2.69-0.51-4.01-0.41c-2.62,0.2-4.9-0.24-6.76-2.27c-1.2-1.31-2.91-1.64-4.58-1.87c-1.36-0.19-2.36-0.75-3.2-1.86
			c-0.61-0.81-1.41-1.54-2.27-2.07c-1.5-0.94-1.99-2.12-1.62-3.85c0.19-0.9,0.18-1.95-0.09-2.82c-1.18-3.84-0.96-7.75-0.76-11.67
			c0.06-1.28,0.15-2.55,0.21-3.83c0.02-0.4,0.03-0.8,0-1.2c-0.15-1.83-1.17-3.11-2.43-3.05c-1.22,0.05-2,1.13-2,3.07
			c0,4,0.11,8,0.11,12c0,1.19-0.21,2.38-0.32,3.57c-0.32,3.38-2.63,4.95-5.51,5.92c-0.64,0.22-1.5,0.31-2.1,0.07
			c-3.43-1.38-7.07-1.36-10.64-1.56c-6.22-0.35-12.46-0.39-18.69-0.57c-1.36-0.04-2.72-0.1-4.07-0.18
			c-2.15-0.13-4.35-0.62-6.45-0.35c-3.65,0.48-6.51-1.01-9.28-2.94c-0.77-0.53-1.43-1.28-2.01-2.03c-0.94-1.21-2.04-2.05-3.61-2.04
			c-1.39,0.01-2.44-0.56-3.34-1.59c-0.52-0.6-1.23-1.02-1.78-1.6c-0.93-0.96-1.97-1.87-2.66-2.99c-0.81-1.31-1.76-2.31-3.26-2.59
			c-2.73-0.51-4.11-2.66-5.56-4.62c-0.49-0.65-0.37-1.83-0.37-2.76c0.02-6.63,0.08-13.27,0.12-19.9c0-0.56,0.01-1.15-0.16-1.67
			c-0.61-1.87,0-3.29,1.5-4.41c1.4-1.05,2.87-2.02,4.23-3.11c0.98-0.78,1.84-1.71,2.75-2.58c0.91-0.87,1.78-1.78,2.72-2.63
			c0.82-0.75,1.79-1.35,2.55-2.15c0.92-0.98,1.91-1.69,3.3-1.7c1.2-0.01,2.21-0.53,2.9-1.47c1.72-2.34,4.67-3.02,6.65-5.01
			c0.3-0.3,0.88-0.4,1.34-0.42c2.79-0.15,5.58-0.3,8.37-0.36c10.87-0.25,21.76,0.11,32.6-1.04c0.71-0.08,1.43-0.22,2.11-0.45
			c2.17-0.74,4.15-0.02,5.99,0.93c0.76,0.39,1.44,1.35,1.7,2.19c0.51,1.66,0.89,3.41,0.98,5.14c0.13,2.47-0.06,4.96-0.09,7.44
			c-0.01,0.64,0,1.29,0.11,1.91c0.17,1.02,0.7,1.82,1.83,1.92c1.14,0.1,1.78-0.65,2.15-1.59c0.23-0.58,0.3-1.24,0.31-1.87
			c0.02-1.52,0.16-3.07-0.11-4.55c-0.73-4.06,0.55-7.76,1.76-11.49c0.19-0.58,0.6-1.14,1.03-1.59c0.55-0.58,1.2-1.05,1.83-1.54
			c2.79-2.14,5.54-4.22,9.44-3.84c1.06,0.1,2.27-0.67,3.31-1.23c2.35-1.28,4.73-2.13,7.48-2.23c2.45-0.09,4.88-0.76,7.31-1.21
			c3.3-0.61,6.61-1.17,9.88-1.91c3.38-0.76,6.77-0.95,10.23-1.01c3.34-0.06,6.68-0.63,10.02-0.97c2.78-0.29,5.57-0.53,8.34-0.87
			c2.06-0.26,4.12-0.57,6.15-0.99c2.91-0.61,5.8-1.15,8.79-0.63c0.86,0.15,1.76,0.12,2.63,0.07c20.38-1.02,40.78-0.72,61.18-0.65
			c5.84,0.02,11.68,0.23,17.51,0.31c3.59,0.05,7.18-0.05,10.77,0.05c1.91,0.05,3.82,0.35,5.72,0.6c4.11,0.54,8.21,1.22,12.34,1.66
			c6.12,0.64,12.26,1.16,18.4,1.64c2.46,0.19,4.96-0.04,7.42,0.2c3.18,0.32,6.32,0.96,9.49,1.39c7.44,1.01,14.8,2.66,22.36,2.74
			c1.53,0.02,3.11,0.69,4.57,1.29c3.3,1.35,6.69,2.13,10.27,2.06c2.76-0.05,5.34,0.47,7.74,2.05c1.19,0.79,2.82,1.08,4.28,1.25
			c1.68,0.19,3.12,0.66,4.25,1.91c1.05,1.16,2.28,1.99,3.89,2.16c1.58,0.17,2.57,1.14,3.33,2.46c0.87,1.52,1.84,2.99,2.71,4.51
			c1.6,2.81,1.91,5.92,1.92,9.05C1150.47,414.86,1150.45,424.3,1150.45,433.74z"/>
	</g>
</g>
</svg>
